<?xml version="1.0" encoding="utf-8"?>
<!-- Generator: Adobe Illustrator 20.1.0, SVG Export Plug-In . SVG Version: 6.00 Build 0)  -->
<svg version="1.1" id="Layer_1" xmlns="http://www.w3.org/2000/svg" xmlns:xlink="http://www.w3.org/1999/xlink" x="0px" y="0px"
	 width="248px" height="84px" viewBox="0 0 248 84" style="enable-background:new 0 0 248 84;" xml:space="preserve">
<style type="text/css">
	.st0{fill:#FFFFFF;}
</style>
<g>
	<path class="st0" d="M0,84c0,0,142.3-34.8,247.7-10.3l0.3-1.1c0,0-92-27.1-246.2,5.9L0,84z"/>
	<path class="st0" d="M68.2,15.6v5.8c0.5-1.2,1.2-2.7,3-4.2c1.9-1.6,4.8-2.6,7.5-2.6c1.4,0,2.8,0.2,4.2,0.7c4.4,1.7,5.7,5.1,6.2,6.6
		c3.4-6.3,8.9-7.3,11.8-7.3c3.6,0,6.7,1.3,8.8,3.4c3.7,3.6,3.9,7.6,3.9,17.5v22.8h-10.9V38.1c0-6.8-0.1-8.2-1.3-10.1
		c-1.2-2-2.9-2.4-4.5-2.4c-3,0-4.5,2.1-4.7,2.5C91,30.2,91,33.7,91,37.2v21.1H80V36.8c0-4.6,0-6.7-1.1-8.6c-0.8-1.4-2.5-2.6-4.5-2.6
		c-1,0-1.9,0.2-2.8,0.7c-3.2,1.8-3.3,4.9-3.3,13v18.9h-11V15.6H68.2z"/>
	<polygon class="st0" points="157.1,15.6 168.2,15.6 157.1,58.3 146.9,58.3 140.4,29.5 134,58.3 123.6,58.3 112.5,15.6 123.6,15.6 
		129.5,42.3 135.5,15.6 145.2,15.6 151.2,42.3 	"/>
	<path class="st0" d="M191.2,36.5c0,3.9-0.5,7.6-2.8,10.4c-1.9,2.2-4.1,2.4-4.8,2.4c-2.2,0-4.6-1.3-6.1-5c-0.9-2.1-1.2-4.7-1.2-7.3
		c0-3.3,0.4-6.7,2.3-9.4c1.3-1.9,3.4-3.1,5.4-3.1c1.6,0,3.3,0.8,4.4,2.1C189.9,28.1,191.2,31,191.2,36.5 M191.8,58.3h10.7V15.5H192
		V21c-1.9-4.1-5.3-6.5-9.5-6.5c-7.3,0-16.8,6.3-16.8,23.1c0,13.4,6.8,21.6,16,21.6c6.3,0,8.8-3.6,10.1-5.6V58.3z"/>
	<path class="st0" d="M227.8,15.6h11.1L226.7,58c-0.9,3-2.3,7.8-4.5,10.2c-2,2.1-4.4,3.1-13.3,3.1c-1.3,0-1.8-0.1-2.9-0.2v-9.5h2.9
		c1,0,3.5,0,4.6-1.1c0.9-0.7,1.6-2.6,1.6-4.3c0-0.9-0.4-2.6-0.8-3.6l-11.9-37.1h11.9l7,28.8L227.8,15.6z"/>
	<path class="st0" d="M32.9,12.8l5.9,22.5H27.3L32.9,12.8z M25.9,0L7.6,58.3h13.5l3.4-12.4h17.2l3.5,12.4h13.6L39.7,0H25.9z"/>
</g>
</svg>
